<?xml version="1.0" encoding="utf-8"?>
<!-- Generator: Adobe Illustrator 16.0.0, SVG Export Plug-In . SVG Version: 6.00 Build 0)  -->
<!DOCTYPE svg PUBLIC "-//W3C//DTD SVG 1.1//EN" "http://www.w3.org/Graphics/SVG/1.1/DTD/svg11.dtd">
<svg version="1.1" xmlns="http://www.w3.org/2000/svg" xmlns:xlink="http://www.w3.org/1999/xlink" x="0px" y="0px"
	 width="1751.842px" height="552.565px" viewBox="0 0 1751.842 552.565" enable-background="new 0 0 1751.842 552.565"
	 xml:space="preserve">
<g id="Layer_1" display="none">
	<linearGradient id="SVGID_1_" gradientUnits="userSpaceOnUse" x1="-3.2832" y1="-984.8555" x2="1524.911" y2="1662.0549">
		<stop  offset="0" style="stop-color:#0055DE"/>
		<stop  offset="1" style="stop-color:#3CD1A4"/>
	</linearGradient>
	
		<rect x="-700.645" y="-582.234" fill="url(#SVGID_1_)" stroke="#231F20" stroke-miterlimit="10" width="2922.917" height="1841.667"/>
</g>
<g id="Layer_2" display="none">
	<g display="inline">
		<linearGradient id="SVGID_2_" gradientUnits="userSpaceOnUse" x1="-674.8945" y1="270.499" x2="2204.915" y2="270.499">
			<stop  offset="0.0054" style="stop-color:#0072DE"/>
			<stop  offset="1" style="stop-color:#3CB891"/>
		</linearGradient>
		<path fill="url(#SVGID_2_)" d="M2144.915,366.025c33,0,60-21.675,60-48.166c0-26.491-27-48.166-60-48.166H1873.74
			c-33,0-60-21.584-60-47.964s-27-47.964-60-47.964h-234.228c-33,0-60-21.403-60-47.562s27-47.562,60-47.562h355.682
			c33,0,60-21.674,60-48.166s-27-48.166-60-48.166H-614.895c-33,0-60,21.674-60,48.166s27,48.166,60,48.166h364.754
			c33,0,60,21.403,60,47.562s-27,47.562-60,47.562h-85.946c-33,0-60,21.674-60,48.166s27,48.166,60,48.166h29.85
			c33,0,60,21.584,60,47.964s27,47.964,60,47.964h65.418c33,0,60,21.675,60,48.165c0,26.491-27,48.166-60,48.166h-397.465
			c-33,0-60,21.675-60,48.166c0,26.49,27,48.165,60,48.165h2467.61c33,0,60-21.675,60-48.165c0-26.491-27-48.166-60-48.166h-75.587
			c-33,0-60-21.675-60-48.166c0-26.49,27-48.165,60-48.165H2144.915z"/>
	</g>
</g>
<g id="Layer_5" display="none">
	<g display="inline">
		<path fill="#231F20" d="M5170.223,450.434c33,0,60-26.943,60-59.875s-27-59.875-60-59.875h-366.274c-33,0-60-26.831-60-59.625
			s-27-59.625-60-59.625h-320.343c-33,0-60-26.606-60-59.125s27-59.125,60-59.125h471.323c33,0,60-26.944,60-59.875
			s-27-59.875-60-59.875H1710.302c-33,0-60,26.944-60,59.875s27,59.875,60,59.875h482.604c33,0,60,26.606,60,59.125
			s-27,59.125-60,59.125h-136.015c-33,0-60,26.943-60,59.875s27,59.875,60,59.875h66.28c33,0,60,26.831,60,59.625
			s27,59.625,60,59.625h110.495c33,0,60,26.943,60,59.875s-27,59.875-60,59.875H1830.4c-33,0-60,26.943-60,59.875
			s27,59.875,60,59.875h3096.686c33,0,60-26.943,60-59.875s-27-59.875-60-59.875h-123.138c-33,0-60-26.943-60-59.875
			s27-59.875,60-59.875H5170.223z"/>
	</g>
</g>
<g id="Layer_4" display="none">
	<g display="inline">
		<linearGradient id="SVGID_3_" gradientUnits="userSpaceOnUse" x1="431.0645" y1="65.0659" x2="431.0644" y2="542.8159">
			<stop  offset="0" style="stop-color:#FFFFFF"/>
			<stop  offset="1" style="stop-color:#F1F2F2"/>
		</linearGradient>
		<rect x="402.14" y="65.066" fill="url(#SVGID_3_)" width="57.85" height="477.75"/>
		<linearGradient id="SVGID_4_" gradientUnits="userSpaceOnUse" x1="688.2974" y1="182.0659" x2="688.2974" y2="552.5659">
			<stop  offset="0" style="stop-color:#FFFFFF"/>
			<stop  offset="1" style="stop-color:#F1F2F2"/>
		</linearGradient>
		<path fill="url(#SVGID_4_)" d="M827.235,250.641c-9.969-22.963-26.381-40.138-49.237-51.513
			c-22.862-11.375-50.213-17.063-82.063-17.063c-39.65,0-71.612,8.775-95.875,26.325c-24.269,17.55-40.625,41.711-49.075,72.475
			l54.925,16.575c6.5-21.663,17.713-37.319,33.638-46.962c15.925-9.638,34.501-14.462,55.737-14.462
			c32.063,0,54.651,7.475,67.763,22.425c11.792,13.451,17.999,33.5,18.656,60.105c-12.318,1.697-25.197,3.438-38.644,5.22
			c-21.237,2.818-42.199,5.906-62.888,9.262c-20.693,3.361-39.381,7.313-56.063,11.863c-17.769,5.199-33.043,12.299-45.825,21.287
			c-12.786,8.993-22.699,20.262-29.737,33.8c-7.043,13.544-10.563,29.524-10.563,47.938c0,18.851,4.494,36.187,13.487,52
			c8.988,15.818,22.313,28.55,39.976,38.188c17.656,9.638,39.594,14.462,65.813,14.462c34.013,0,62.887-7.262,86.612-21.774
			c17.243-10.548,31.695-24.779,43.388-42.655v54.68h51.35v-217.1c0-13.863-0.65-27.137-1.95-39.813
			C835.36,273.229,832.217,261.478,827.235,250.641z M775.235,423.216c-2.818,14.519-8.887,27.899-18.2,40.138
			c-9.318,12.243-21.612,22.101-36.888,29.575c-15.274,7.475-33.313,11.213-54.112,11.213c-16.687,0-30.174-2.707-40.462-8.125
			c-10.294-5.414-17.875-12.457-22.75-21.125c-4.875-8.664-7.313-17.764-7.313-27.301c0-11.05,2.544-20.313,7.637-27.787
			c5.089-7.475,11.807-13.594,20.15-18.363c8.338-4.763,17.275-8.662,26.813-11.699c13-3.682,27.625-6.876,43.875-9.588
			c16.25-2.707,33.475-5.25,51.675-7.637c11.638-1.523,23.423-3.097,35.326-4.71c-0.081,5.459-0.21,11.846-0.389,19.172
			C780.272,400.304,778.485,412.384,775.235,423.216z"/>
		<linearGradient id="SVGID_5_" gradientUnits="userSpaceOnUse" x1="1062.373" y1="182.0659" x2="1062.373" y2="552.5659">
			<stop  offset="0" style="stop-color:#FFFFFF"/>
			<stop  offset="1" style="stop-color:#F1F2F2"/>
		</linearGradient>
		<path fill="url(#SVGID_5_)" d="M1011.511,253.729c15.6-11.157,35.425-16.738,59.475-16.738c21.45,0,40.463,5.637,57.037,16.9
			c16.575,11.268,28.545,27.086,35.913,47.45l57.2-17.225c-9.101-31.631-27.031-56.55-53.788-74.75
			c-26.762-18.2-58.662-27.3-95.712-27.3c-35.101,0-65.112,7.8-90.025,23.4c-24.918,15.6-44.037,37.324-57.362,65.163
			c-13.325,27.843-20.206,60.074-20.638,96.687c0.432,35.75,7.15,67.601,20.15,95.551c13,27.949,31.9,49.887,56.712,65.813
			c24.807,15.925,54.976,23.887,90.513,23.887c36.4,0,67.488-8.668,93.275-26c25.781-17.331,44.738-42.355,56.875-75.074
			l-58.5-15.275c-7.801,19.938-19.287,35.156-34.45,45.662c-15.169,10.512-34.237,15.764-57.2,15.764
			c-34.887,0-61.156-11.97-78.813-35.913c-17.662-23.938-26.706-55.413-27.138-94.413c0.214-25.35,4.113-47.825,11.7-67.437
			C984.317,280.272,995.91,264.89,1011.511,253.729z"/>
		<linearGradient id="SVGID_6_" gradientUnits="userSpaceOnUse" x1="1313.4287" y1="191.8159" x2="1313.4287" y2="542.8159">
			<stop  offset="0" style="stop-color:#FFFFFF"/>
			<stop  offset="1" style="stop-color:#F1F2F2"/>
		</linearGradient>
		<rect x="1284.504" y="191.816" fill="url(#SVGID_6_)" width="57.85" height="351"/>
		<linearGradient id="SVGID_7_" gradientUnits="userSpaceOnUse" x1="1313.4287" y1="69.9409" x2="1313.4287" y2="129.7407">
			<stop  offset="0" style="stop-color:#FFFFFF"/>
			<stop  offset="1" style="stop-color:#F1F2F2"/>
		</linearGradient>
		<rect x="1284.504" y="69.941" fill="url(#SVGID_7_)" width="57.85" height="59.8"/>
		<linearGradient id="SVGID_8_" gradientUnits="userSpaceOnUse" x1="1586.0957" y1="182.0659" x2="1586.0957" y2="552.5659">
			<stop  offset="0" style="stop-color:#FFFFFF"/>
			<stop  offset="1" style="stop-color:#F1F2F2"/>
		</linearGradient>
		<path fill="url(#SVGID_8_)" d="M1721.625,383.565h29.899c1.731-41.6-3.631-77.456-16.087-107.575
			c-12.462-30.113-31.094-53.3-55.9-69.55c-24.812-16.25-54.874-24.375-90.188-24.375c-34.019,0-63.649,7.638-88.888,22.913
			c-25.243,15.275-44.905,36.943-58.987,65c-14.087,28.062-21.125,61.262-21.125,99.612c0,36.619,7.15,68.631,21.45,96.037
			c14.3,27.412,34.287,48.75,59.962,64.025c25.676,15.275,55.738,22.912,90.188,22.912c34.014,0,64.727-8.506,92.138-25.512
			c27.407-17.007,47.938-41.001,61.588-71.988l-55.575-19.174c-9.75,19.936-23.187,35.211-40.3,45.824
			c-17.118,10.619-37.269,15.926-60.45,15.926c-34.45,0-60.993-11.375-79.625-34.125c-16.119-19.676-25.248-46.335-27.426-79.951
			h210.726H1721.625z M1509.725,268.516c18.632-22.963,45.825-34.45,81.575-34.45c33.363,0,58.5,10.674,75.399,32.013
			c13.357,16.869,21.634,40.544,24.84,71.012h-208.027C1486.998,308.617,1495.734,285.759,1509.725,268.516z"/>
		<linearGradient id="SVGID_9_" gradientUnits="userSpaceOnUse" x1="167.5376" y1="0" x2="167.5376" y2="541.4097">
			<stop  offset="0" style="stop-color:#FFFFFF"/>
			<stop  offset="1" style="stop-color:#F1F2F2"/>
		</linearGradient>
		<path fill="url(#SVGID_9_)" d="M283.237,28.6c-17.225-13.432-38.512-22.1-63.862-26c-5.85-1.082-11.918-1.788-18.2-2.113
			C194.888,0.163,189.475,0,184.925,0H0v468h0.251v73.409h57.906v-88.33H57.85V295.1h127.075c4.55,0,9.963-0.213,16.25-0.65
			c6.282-0.432,12.35-1.082,18.2-1.95c25.132-3.9,46.313-12.619,63.538-26.163c17.225-13.538,30.225-30.55,39-51.025
			s13.163-43.063,13.163-67.763c0-24.913-4.337-47.612-13-68.087C313.407,58.987,300.462,42.037,283.237,28.6z M269.425,185.737
			c-4.336,12.462-11.212,23.293-20.637,32.5c-9.425,9.212-21.613,15.549-36.563,19.013c-4.769,1.087-9.806,1.843-15.113,2.275
			c-5.312,0.437-10.024,0.65-14.137,0.65H57.85V54.925h125.125c4.113,0,8.826,0.163,14.137,0.488
			c5.307,0.325,10.344,1.137,15.113,2.438c14.95,3.25,27.137,9.537,36.563,18.85c9.425,9.318,16.301,20.206,20.637,32.662
			c4.332,12.462,6.5,25.188,6.5,38.188S273.757,173.281,269.425,185.737z"/>
	</g>
</g>
<g id="Layer_6">
	<g>
		<g>
			<g>
				<path fill="#00B6DE" d="M402.14,512.815c0,16.5,13.016,30,28.925,30s28.925-13.5,28.925-30V95.066c0-16.5-13.016-30-28.925-30
					s-28.925,13.5-28.925,30V512.815z"/>
			</g>
			<g>
				<path fill="#00B6DE" d="M827.235,250.641c-9.969-22.963-26.381-40.138-49.237-51.513
					c-22.862-11.375-50.213-17.063-82.063-17.063c-39.65,0-71.612,8.775-95.875,26.325c-24.269,17.55-36.727,45.134-36.727,45.134
					c-6.792,15.038,0.009,31.07,15.114,35.628s33.251-3.908,40.326-18.814c0,0,4.85-10.217,20.774-19.86
					c15.925-9.638,34.501-14.462,55.737-14.462c32.063,0,54.651,7.475,67.763,22.425c11.792,13.451,14.289,30.424,14.289,30.424
					c2.402,16.324-6.972,31.228-20.83,33.119c0,0,0,0-13.447,1.782c-21.237,2.818-42.199,5.906-62.888,9.262
					c-20.693,3.361-39.381,7.313-56.063,11.863c-17.769,5.199-33.043,12.299-45.825,21.287c-12.786,8.993-22.699,20.262-29.737,33.8
					c-7.043,13.544-10.563,29.524-10.563,47.938c0,18.851,4.494,36.187,13.487,52c8.988,15.818,22.313,28.55,39.976,38.188
					c17.656,9.638,39.594,14.462,65.813,14.462c34.013,0,62.887-7.262,86.612-21.774c17.243-10.548,24.444-19.393,24.444-19.393
					c10.419-12.794,18.943-10.96,18.943,4.077s11.554,27.34,25.675,27.34s25.675-13.5,25.675-30v-157.1
					c0-16.5-0.293-42.212-0.65-57.137c0,0,0,0-1.3-12.675C835.36,273.229,832.217,261.478,827.235,250.641z M780.272,400.304
					c-2.771,12.602-9.036,35.467-13.924,50.812c0,0,0,0-9.313,12.238c-9.318,12.243-21.612,22.101-36.888,29.575
					c-15.274,7.475-33.313,11.213-54.112,11.213c-16.687,0-30.174-2.707-40.462-8.125c-10.294-5.414-17.875-12.457-22.75-21.125
					c-4.875-8.664-7.313-17.764-7.313-27.301c0-11.05,2.544-20.313,7.637-27.787c5.089-7.475,11.807-13.594,20.15-18.363
					c8.338-4.763,17.275-8.662,26.813-11.699c13-3.682,27.625-6.876,43.875-9.588c16.25-2.707,33.475-5.25,51.675-7.637
					c11.638-1.523,11.638-1.523,11.638-1.523c13.028-1.753,23.594,2.145,23.479,8.659c0,0,0,0-0.179,7.326
					C780.272,400.304,780.272,400.304,780.272,400.304z"/>
			</g>
			<g>
				<path fill="#00B6DE" d="M1011.511,253.729c15.6-11.157,35.425-16.738,59.475-16.738c21.45,0,40.463,5.637,57.037,16.9
					c16.575,11.268,21.772,20.992,21.772,20.992c7.777,14.552,27.011,22.583,42.74,17.846c15.73-4.737,22.778-20.793,15.662-35.68
					c0,0-14.093-29.483-40.85-47.683c-26.762-18.2-58.662-27.3-95.712-27.3c-35.101,0-65.112,7.8-90.025,23.4
					c-24.918,15.6-44.037,37.324-57.362,65.163c-13.325,27.843-20.206,60.074-20.638,96.687c0.432,35.75,7.15,67.601,20.15,95.551
					c13,27.949,31.9,49.887,56.712,65.813c24.807,15.925,54.976,23.887,90.513,23.887c36.4,0,67.488-8.668,93.275-26
					c25.781-17.331,42.651-48.66,42.651-48.66c7.823-14.527,1.162-29.825-14.803-33.993l-0.447-0.117
					c-15.965-4.168-35.52,4.257-43.456,18.723c0,0-4.857,8.854-20.021,19.36c-15.169,10.512-34.237,15.764-57.2,15.764
					c-34.887,0-61.156-11.97-78.813-35.913c-17.662-23.938-26.706-55.413-27.138-94.413c0.214-25.35,4.113-47.825,11.7-67.437
					C984.317,280.272,995.91,264.89,1011.511,253.729z"/>
			</g>
			<g>
				<path fill="#3CB891" d="M1284.504,512.815c0,16.5,13.016,30,28.925,30s28.925-13.5,28.925-30v-291c0-16.5-13.016-30-28.925-30
					s-28.925,13.5-28.925,30V512.815z"/>
			</g>
			<g>
				<path fill="#3CB891" d="M1284.504,99.841c0,16.445,13.016,29.9,28.925,29.9s28.925-13.455,28.925-29.9s-13.016-29.9-28.925-29.9
					S1284.504,83.396,1284.504,99.841z"/>
			</g>
			<g>
				<path fill="#00B6DE" d="M1707.324,383.565c7.865,0,21.028,0,29.25,0c8.223,0,14.318-13.485,13.545-29.967
					c0,0-2.226-47.489-14.682-77.608c-12.462-30.113-31.094-53.3-55.9-69.55c-24.812-16.25-54.874-24.375-90.188-24.375
					c-34.019,0-63.649,7.638-88.888,22.913c-25.243,15.275-44.905,36.943-58.987,65c-14.087,28.062-21.125,61.262-21.125,99.612
					c0,36.619,7.15,68.631,21.45,96.037c14.3,27.412,34.287,48.75,59.962,64.025c25.676,15.275,55.738,22.912,90.188,22.912
					c34.014,0,64.727-8.506,92.138-25.512c27.407-17.007,45.749-46.511,45.749-46.511c8.711-14.013,3.334-29.792-11.949-35.064
					s-35.212,1.688-44.286,15.469c0,0-6.688,10.155-23.801,20.769c-17.118,10.619-37.269,15.926-60.45,15.926
					c-34.45,0-60.993-11.375-79.625-34.125c-16.119-19.676-21.895-50.466-21.895-50.466c-3.042-16.217,7.969-29.485,24.469-29.485
					h150.726C1679.524,383.565,1699.459,383.565,1707.324,383.565z M1509.725,268.516c18.632-22.963,45.825-34.45,81.575-34.45
					c33.363,0,58.5,10.674,75.399,32.013c13.357,16.869,18.616,41.665,18.616,41.665c3.423,16.141-7.276,29.347-23.776,29.347
					h-148.027c-16.5,0-26.873-13.133-23.051-29.184C1490.461,307.907,1495.734,285.759,1509.725,268.516z"/>
			</g>
			<g>
				<path fill="#00B6DE" d="M283.237,28.6c-17.225-13.432-38.512-22.1-63.862-26c-5.85-1.082-11.918-1.788-18.2-2.113
					c-6.287-0.325-6.287-0.325-6.287-0.325C189.408,0.073,171.425,0,154.925,0H30C13.5,0,0,13.5,0,30v408c0,16.5,0.057,30,0.125,30
					s0.125,13.5,0.125,30v13.409c0,16.5,13.029,30,28.953,30c15.924,0,28.953-13.5,28.953-30v-28.33c0-16.5-0.069-30-0.153-30
					s-0.153-13.5-0.153-30V325.1c0-16.5,13.5-30,30-30h67.075c16.5,0,34.483-0.096,39.963-0.213c0,0,0,0,6.287-0.437
					c6.282-0.432,12.35-1.082,18.2-1.95c25.132-3.9,46.313-12.619,63.538-26.163c17.225-13.538,30.225-30.55,39-51.025
					s13.163-43.063,13.163-67.763c0-24.913-4.337-47.612-13-68.087C313.407,58.987,300.462,42.037,283.237,28.6z M269.425,185.737
					c-4.336,12.462-11.212,23.293-20.637,32.5c-9.425,9.212-21.613,15.549-36.563,19.013c-4.769,1.087-9.806,1.843-15.113,2.275
					c-5.312,0.437-5.312,0.437-5.312,0.437c-4.854,0.117-22.326,0.213-38.826,0.213H87.85c-16.5,0-30-13.5-30-30V84.925
					c0-16.5,13.5-30,30-30h65.125c16.5,0,33.972,0.073,38.826,0.163c0,0,0,0,5.312,0.325c5.307,0.325,5.307,0.325,5.307,0.325
					c5.394,1.162,22.018,6.404,36.943,11.649c0,0,0,0,9.425,9.313c9.425,9.318,16.301,20.206,20.637,32.662
					c4.332,12.462,6.5,25.188,6.5,38.188S273.757,173.281,269.425,185.737z"/>
			</g>
		</g>
	</g>
	<g>
	</g>
	<g>
	</g>
	<g>
	</g>
	<g>
	</g>
	<g>
	</g>
	<g>
	</g>
</g>
</svg>
