<?xml version="1.0" encoding="utf-8"?>
<!-- Generator: Adobe Illustrator 16.0.0, SVG Export Plug-In . SVG Version: 6.00 Build 0)  -->
<!DOCTYPE svg PUBLIC "-//W3C//DTD SVG 1.1//EN" "http://www.w3.org/Graphics/SVG/1.1/DTD/svg11.dtd">
<svg version="1.1" xmlns="http://www.w3.org/2000/svg" xmlns:xlink="http://www.w3.org/1999/xlink" x="0px" y="0px"
	 width="500.333px" height="178.334px" viewBox="0 0 500.333 178.334" enable-background="new 0 0 500.333 178.334"
	 xml:space="preserve">
<g id="Layer_1">
	<g>
		<rect x="146.051" y="4.858" fill="none" width="377.474" height="205.461"/>
		<path fill="#00B6DE" d="M159.851,6.657c1.2-1.2,2.64-1.8,4.32-1.8c1.68,0,3.12,0.6,4.32,1.8c1.2,1.2,1.8,2.682,1.8,4.44v155.76
			c0,1.763-0.6,3.202-1.8,4.32c-1.2,1.121-2.64,1.68-4.32,1.68c-1.68,0-3.12-0.559-4.32-1.68c-1.2-1.118-1.8-2.558-1.8-4.32V11.098
			C158.051,9.339,158.651,7.857,159.851,6.657z"/>
		<path fill="#00B6DE" d="M259.09,106.377c7.52,7.042,11.6,15.6,12.24,25.68v34.8c0,1.763-0.6,3.202-1.801,4.32
			c-1.199,1.121-2.602,1.68-4.199,1.68c-1.602,0-3-0.518-4.201-1.56c-1.199-1.039-1.881-2.359-2.039-3.96v-32.881
			c0-0.318,0-0.72,0-1.199c-0.322-7.039-3-12.96-8.04-17.76s-11.081-7.2-18.12-7.2c-7.2,0-13.361,2.562-18.48,7.68
			c-5.123,5.122-7.68,11.321-7.68,18.6c0,7.283,2.557,13.481,7.68,18.601c5.119,5.122,11.28,7.68,18.48,7.68
			c5.119,0,9.84-1.44,14.16-4.32v13.681c-4.481,1.92-9.203,2.88-14.16,2.88c-10.56,0-19.601-3.758-27.12-11.28
			c-7.522-7.519-11.28-16.598-11.28-27.24c0-10.639,3.757-19.717,11.28-27.24c7.519-7.519,16.56-11.28,27.12-11.28
			C243.01,96.058,251.729,99.5,259.09,106.377z"/>
		<path fill="#00B6DE" d="M333.486,108.297c-6.082,0-11.52,1.92-16.32,5.76c-4.799,3.84-7.84,8.64-9.119,14.399h-12.48
			c1.441-9.277,5.76-16.999,12.961-23.16c7.199-6.157,15.559-9.24,25.08-9.24c9.518,0,17.879,3.12,25.08,9.36
			c0.156,0.161,0.318,0.322,0.479,0.48c1.119,1.121,1.682,2.561,1.682,4.32c0,1.763-0.602,3.24-1.801,4.44
			c-1.199,1.2-2.602,1.801-4.199,1.801c-1.441,0-2.641-0.397-3.602-1.201c-0.322-0.319-0.641-0.559-0.959-0.72
			C345.486,110.379,339.885,108.297,333.486,108.297z M354.848,152.697c1.598,0,3,0.601,4.199,1.8c1.199,1.2,1.801,2.682,1.801,4.44
			c0,1.602-0.563,2.963-1.682,4.08c-0.16,0.322-0.4,0.563-0.719,0.72c-7.201,6.24-15.521,9.36-24.961,9.36
			c-9.441,0-17.76-3.12-24.959-9.36c-7.201-6.24-11.52-13.92-12.961-23.04h12.48c1.279,5.76,4.32,10.561,9.119,14.4
			c4.801,3.84,10.238,5.76,16.32,5.76c6.398,0,12.08-2.077,17.041-6.24c0.156-0.157,0.318-0.318,0.48-0.479
			C352.125,153.178,353.406,152.697,354.848,152.697z"/>
		<path fill="#3EBA93" d="M395.766,87.177c-1.201,1.122-2.641,1.68-4.32,1.68s-3.121-0.559-4.32-1.68
			c-1.201-1.117-1.801-2.52-1.801-4.2c0-1.68,0.6-3.12,1.801-4.32c1.199-1.2,2.641-1.8,4.32-1.8s3.119,0.6,4.32,1.8
			c1.199,1.2,1.799,2.64,1.799,4.32C397.564,84.657,396.965,86.06,395.766,87.177z M387.125,97.857c1.199-1.2,2.641-1.8,4.32-1.8
			s3.119,0.6,4.32,1.8c1.199,1.2,1.799,2.681,1.799,4.44v64.56c0,1.763-0.6,3.202-1.799,4.32c-1.201,1.121-2.641,1.68-4.32,1.68
			s-3.121-0.559-4.32-1.68c-1.201-1.118-1.801-2.558-1.801-4.32v-64.56C385.324,100.539,385.924,99.058,387.125,97.857z"/>
		<path fill="#00B6DE" d="M498.361,132.058c0,0.803,0,1.643,0,2.52c0,0.882,0,1.722,0,2.521c-0.162,1.282-0.322,2.482-0.48,3.6
			h-51.84v-12.24H485.4c-1.281-5.76-4.32-10.56-9.119-14.399c-4.801-3.84-10.242-5.76-16.32-5.76c-6.082,0-11.52,1.92-16.32,5.76
			c-4.799,3.84-7.842,8.64-9.119,14.399c-1.121,3.203-1.121,7.283,0,12.24c1.277,5.76,4.32,10.561,9.119,14.4
			c4.801,3.84,10.238,5.76,16.32,5.76c6.398,0,12.078-2.077,17.041-6.24c0.156-0.157,0.318-0.318,0.479-0.479
			c1.117-0.96,2.4-1.44,3.84-1.44c1.119,0,2.16,0.281,3.121,0.84c0.959,0.563,1.68,1.32,2.16,2.28
			c0.479,0.96,0.719,2.003,0.719,3.12c0,1.602-0.563,2.963-1.68,4.08c0,0.161-0.24,0.401-0.719,0.72c0,0.161-0.084,0.24-0.24,0.24
			c-7.043,6.082-15.281,9.12-24.721,9.12c-9.443,0-17.76-3.12-24.959-9.36c-7.201-6.24-11.521-13.92-12.961-23.04
			c-0.322-2.077-0.48-4.158-0.48-6.24c0-2.077,0.158-4.08,0.48-6c1.439-9.277,5.76-16.999,12.961-23.16
			c7.199-6.157,15.516-9.24,24.959-9.24c10.08,0,18.799,3.442,26.16,10.32c6.559,6.083,10.477,13.44,11.76,22.08
			C498.039,129.579,498.199,130.778,498.361,132.058z"/>
	</g>
	<rect x="295.583" y="128.354" fill="#00B6DE" width="12.5" height="12.667"/>
</g>
<g id="Layer_3">
	<path fill="#3DB892" d="M148.667,156.879c0,1.667-1.571,3.02-3.51,3.02H39.844c-1.939,0-3.51-1.353-3.51-3.02l0,0
		c0-1.668,1.571-3.021,3.51-3.021h105.313C147.096,153.858,148.667,155.211,148.667,156.879L148.667,156.879z"/>
	<path fill="#3DB892" d="M46.969,150.284c0.701-0.865,0.442-2.234-0.575-3.059l0,0c-1.018-0.825-2.41-0.793-3.11,0.071l-6.495,8.015
		c-0.7,0.864-0.443,2.233,0.575,3.058l0,0c1.018,0.825,2.411,0.793,3.111-0.071L46.969,150.284z"/>
	<path fill="#3DB892" d="M40.38,155.257c-0.716-0.853-2.11-0.859-3.112-0.018l0,0c-1.004,0.842-1.237,2.215-0.522,3.067l6.633,7.901
		c0.715,0.852,2.108,0.859,3.111,0.017l0,0c1.003-0.842,1.237-2.216,0.521-3.067L40.38,155.257z"/>
	<path fill="#3DB892" d="M141.621,147.521c-0.716-0.853-2.11-0.859-3.112-0.018l0,0c-1.004,0.842-1.237,2.215-0.522,3.067
		l6.633,7.901c0.715,0.852,2.108,0.859,3.111,0.017l0,0c1.003-0.842,1.237-2.216,0.521-3.067L141.621,147.521z"/>
	<path fill="#3DB892" d="M148.366,157.956c0.624-0.923,0.248-2.265-0.836-2.998l0,0c-1.085-0.734-2.469-0.582-3.093,0.34
		l-5.779,8.545c-0.623,0.922-0.248,2.264,0.837,2.997l0,0c1.084,0.734,2.47,0.582,3.093-0.34L148.366,157.956z"/>
	<g>
		<rect x="64.855" y="107.812" fill="none" width="71.319" height="55.752"/>
		<path fill="#3DB892" d="M67.555,150.411v-3.24l4.14-4.02c9.959-9.479,14.459-14.52,14.52-20.399c0-3.96-1.92-7.619-7.74-7.619
			c-3.54,0-6.48,1.8-8.28,3.3l-1.68-3.72c2.7-2.28,6.54-3.96,11.04-3.96c8.4,0,11.939,5.76,11.939,11.339
			c0,7.2-5.22,13.02-13.439,20.939l-3.12,2.88v0.12h17.519v4.38H67.555z"/>
		<path fill="#3DB892" d="M98.007,150.411v-18.668h2.83v2.619c0.586-0.914,1.365-1.649,2.338-2.206s2.08-0.835,3.322-0.835
			c1.383,0,2.517,0.287,3.401,0.861s1.509,1.377,1.872,2.408c1.477-2.18,3.398-3.27,5.766-3.27c1.852,0,3.275,0.513,4.271,1.538
			s1.494,2.604,1.494,4.737v12.814h-3.146v-11.76c0-1.266-0.103-2.177-0.308-2.733s-0.577-1.005-1.116-1.345s-1.172-0.51-1.898-0.51
			c-1.313,0-2.402,0.437-3.27,1.31s-1.301,2.271-1.301,4.192v10.846h-3.164v-12.129c0-1.406-0.258-2.461-0.773-3.164
			s-1.359-1.055-2.531-1.055c-0.891,0-1.714,0.234-2.47,0.703s-1.304,1.154-1.644,2.057s-0.51,2.203-0.51,3.902v9.686H98.007z"/>
	</g>
</g>
<g id="P">
	<rect x="3.243" y="78.237" fill="#00B5DD" width="12.167" height="55.438"/>
	<g id="Layer_4" display="none">
		<rect x="38.178" y="68.472" display="inline" fill="#3EBA93" width="14.75" height="6.239"/>
		<rect x="69.696" y="49.252" display="inline" fill="#3EBA93" width="4.063" height="4.063"/>
		<rect x="69.696" y="54.19" display="inline" fill="#3EBA93" width="4.063" height="4.063"/>
		<rect x="64.696" y="54.19" display="inline" fill="#3EBA93" width="4.063" height="4.063"/>
		<rect x="64.696" y="49.252" display="inline" fill="#3EBA93" width="4.063" height="4.063"/>
		
			<rect x="50.45" y="45.817" transform="matrix(-0.7627 0.6468 -0.6468 -0.7627 144.6683 93.3889)" display="inline" fill="#3EBA93" width="9.5" height="54.84"/>
		
			<rect x="49.05" y="7.455" transform="matrix(-0.8188 -0.5741 0.5741 -0.8188 77.5037 95.3523)" display="inline" fill="#3EBA93" width="9.5" height="55.978"/>
	</g>
	<g>
		<rect x="-8.699" y="4.116" fill="none" width="129.601" height="197.611"/>
		<path fill="#00B6DE" d="M51.301,4.116c8.64,0,16.68,2.123,24.12,6.36c7.44,4.241,13.32,10.08,17.64,17.52
			c4.32,7.44,6.48,15.48,6.48,24.12c0,13.283-4.722,24.641-14.16,34.08c-9.442,9.442-20.801,14.16-34.08,14.16
			c-0.96,0-1.92,0-2.88,0h-18.72h-26.4v-90.24c0-1.598,0.6-3,1.8-4.2c1.2-1.2,2.599-1.8,4.2-1.8h39.12
			C49.381,4.116,50.341,4.116,51.301,4.116z M3.301,166.115v-53.759h12.24v53.759c0,1.602-0.6,3-1.8,4.201
			c-1.2,1.199-2.64,1.799-4.32,1.799c-1.68,0-3.12-0.6-4.32-1.799C3.901,169.115,3.301,167.717,3.301,166.115z M51.301,88.356
			c6.559,0,12.6-1.639,18.12-4.92c5.52-3.277,9.877-7.68,13.08-13.2c3.199-5.52,4.8-11.558,4.8-18.12
			c0-9.919-3.521-18.397-10.56-25.44c-7.042-7.039-15.521-10.56-25.44-10.56c-0.96,0-1.763,0.083-2.4,0.24h-33.36v71.76h33.36
			C49.539,88.277,50.341,88.356,51.301,88.356z"/>
	</g>
</g>
</svg>
